<?xml version="1.0" encoding="utf-8" standalone="no"?>
<!DOCTYPE svg PUBLIC "-//W3C//DTD SVG 1.1//EN"
  "http://www.w3.org/Graphics/SVG/1.1/DTD/svg11.dtd">
<!-- Created with matplotlib (http://matplotlib.org/) -->
<svg height="345pt" version="1.1" viewBox="0 0 460 345" width="460pt" xmlns="http://www.w3.org/2000/svg" xmlns:xlink="http://www.w3.org/1999/xlink">
 <defs>
  <style type="text/css">
*{stroke-linecap:butt;stroke-linejoin:round;}
  </style>
 </defs>
 <g id="figure_1">
  <g id="patch_1">
   <path d="M 0 345.6 
L 460.8 345.6 
L 460.8 0 
L 0 0 
z
" style="fill:#ffffff;"/>
  </g>
  <g id="patch_2">
   <path d="M 0 345.6 
L 460.8 345.6 
L 460.8 0 
L 0 0 
z
" style="fill:#ffffff;"/>
  </g>
  <g id="pane3d_1">
   <g id="patch_3">
    <path d="M 61.086161 269.23458 
L 192.969532 184.501291 
L 190.773813 22.589882 
L 51.53708 98.721 
" style="fill:#f2f2f2;opacity:0.5;stroke:#f2f2f2;stroke-linejoin:miter;"/>
   </g>
  </g>
  <g id="pane3d_2">
   <g id="patch_4">
    <path d="M 192.969532 184.501291 
L 406.608193 231.872667 
L 415.546579 65.078886 
L 190.773813 22.589882 
" style="fill:#e6e6e6;opacity:0.5;stroke:#e6e6e6;stroke-linejoin:miter;"/>
   </g>
  </g>
  <g id="pane3d_3">
   <g id="patch_5">
    <path d="M 61.086161 269.23458 
L 285.8629 324.406266 
L 406.608193 231.872667 
L 192.969532 184.501291 
" style="fill:#ececec;opacity:0.5;stroke:#ececec;stroke-linejoin:miter;"/>
   </g>
  </g>
  <g id="axis3d_1">
   <g id="line2d_1">
    <path d="M 61.086161 269.23458 
L 285.8629 324.406266 
" style="fill:none;stroke:#000000;stroke-linecap:square;stroke-width:0.8;"/>
   </g>
   <g id="Line3DCollection_1">
    <path d="M 67.157354 270.72476 
L 198.758746 185.784968 
L 196.851846 23.738818 
" style="fill:none;stroke:#b0b0b0;stroke-width:0.8;"/>
    <path d="M 95.33663 277.641393 
L 225.615478 191.740071 
L 225.057815 29.070618 
" style="fill:none;stroke:#b0b0b0;stroke-width:0.8;"/>
    <path d="M 123.847877 284.639509 
L 252.7656 197.76023 
L 253.587606 34.463631 
" style="fill:none;stroke:#b0b0b0;stroke-width:0.8;"/>
    <path d="M 152.696998 291.720556 
L 280.213946 203.846516 
L 282.446831 39.918917 
" style="fill:none;stroke:#b0b0b0;stroke-width:0.8;"/>
    <path d="M 181.890032 298.886017 
L 307.965457 210.000024 
L 311.641226 45.437561 
" style="fill:none;stroke:#b0b0b0;stroke-width:0.8;"/>
    <path d="M 211.433168 306.13741 
L 336.025183 216.221875 
L 341.176667 51.020672 
" style="fill:none;stroke:#b0b0b0;stroke-width:0.8;"/>
    <path d="M 241.33274 313.476292 
L 364.398288 222.513213 
L 371.059163 56.669388 
" style="fill:none;stroke:#b0b0b0;stroke-width:0.8;"/>
    <path d="M 271.59524 320.904254 
L 393.09005 228.875208 
L 401.294869 62.384872 
" style="fill:none;stroke:#b0b0b0;stroke-width:0.8;"/>
   </g>
   <g id="xtick_1">
    <g id="line2d_2">
     <path d="M 68.29104 269.993043 
L 64.885761 272.19092 
" style="fill:none;stroke:#000000;stroke-linecap:square;stroke-width:0.8;"/>
    </g>
    <g id="text_1">
     <!-- −0.7 -->
     <defs>
      <path d="M 52.828125 31.203125 
L 5.5625 31.203125 
L 5.5625 39.40625 
L 52.828125 39.40625 
z
" id="ArialMT-2212"/>
      <path d="M 4.15625 35.296875 
Q 4.15625 48 6.765625 55.734375 
Q 9.375 63.484375 14.515625 67.671875 
Q 19.671875 71.875 27.484375 71.875 
Q 33.25 71.875 37.59375 69.546875 
Q 41.9375 67.234375 44.765625 62.859375 
Q 47.609375 58.5 49.21875 52.21875 
Q 50.828125 45.953125 50.828125 35.296875 
Q 50.828125 22.703125 48.234375 14.96875 
Q 45.65625 7.234375 40.5 3 
Q 35.359375 -1.21875 27.484375 -1.21875 
Q 17.140625 -1.21875 11.234375 6.203125 
Q 4.15625 15.140625 4.15625 35.296875 
M 13.1875 35.296875 
Q 13.1875 17.671875 17.3125 11.828125 
Q 21.4375 6 27.484375 6 
Q 33.546875 6 37.671875 11.859375 
Q 41.796875 17.71875 41.796875 35.296875 
Q 41.796875 52.984375 37.671875 58.78125 
Q 33.546875 64.59375 27.390625 64.59375 
Q 21.34375 64.59375 17.71875 59.46875 
Q 13.1875 52.9375 13.1875 35.296875 
" id="ArialMT-30"/>
      <path d="M 9.078125 0 
L 9.078125 10.015625 
L 19.09375 10.015625 
L 19.09375 0 
z
" id="ArialMT-2e"/>
      <path d="M 4.734375 62.203125 
L 4.734375 70.65625 
L 51.078125 70.65625 
L 51.078125 63.8125 
Q 44.234375 56.546875 37.515625 44.484375 
Q 30.8125 32.421875 27.15625 19.671875 
Q 24.515625 10.6875 23.78125 0 
L 14.75 0 
Q 14.890625 8.453125 18.0625 20.40625 
Q 21.234375 32.375 27.171875 43.484375 
Q 33.109375 54.59375 39.796875 62.203125 
z
" id="ArialMT-37"/>
     </defs>
     <g transform="translate(44.068776 296.071673)scale(0.16 -0.16)">
      <use xlink:href="#ArialMT-2212"/>
      <use x="58.398438" xlink:href="#ArialMT-30"/>
      <use x="114.013672" xlink:href="#ArialMT-2e"/>
      <use x="141.796875" xlink:href="#ArialMT-37"/>
     </g>
    </g>
   </g>
   <g id="xtick_2">
    <g id="line2d_3">
     <path d="M 96.459391 276.901084 
L 93.086902 279.124785 
" style="fill:none;stroke:#000000;stroke-linecap:square;stroke-width:0.8;"/>
    </g>
    <g id="text_2">
     <!-- −0.6 -->
     <defs>
      <path d="M 49.75 54.046875 
L 41.015625 53.375 
Q 39.84375 58.546875 37.703125 60.890625 
Q 34.125 64.65625 28.90625 64.65625 
Q 24.703125 64.65625 21.53125 62.3125 
Q 17.390625 59.28125 14.984375 53.46875 
Q 12.59375 47.65625 12.5 36.921875 
Q 15.671875 41.75 20.265625 44.09375 
Q 24.859375 46.4375 29.890625 46.4375 
Q 38.671875 46.4375 44.84375 39.96875 
Q 51.03125 33.5 51.03125 23.25 
Q 51.03125 16.5 48.125 10.71875 
Q 45.21875 4.9375 40.140625 1.859375 
Q 35.0625 -1.21875 28.609375 -1.21875 
Q 17.625 -1.21875 10.6875 6.859375 
Q 3.765625 14.9375 3.765625 33.5 
Q 3.765625 54.25 11.421875 63.671875 
Q 18.109375 71.875 29.4375 71.875 
Q 37.890625 71.875 43.28125 67.140625 
Q 48.6875 62.40625 49.75 54.046875 
M 13.875 23.1875 
Q 13.875 18.65625 15.796875 14.5 
Q 17.71875 10.359375 21.1875 8.171875 
Q 24.65625 6 28.46875 6 
Q 34.03125 6 38.03125 10.484375 
Q 42.046875 14.984375 42.046875 22.703125 
Q 42.046875 30.125 38.078125 34.390625 
Q 34.125 38.671875 28.125 38.671875 
Q 22.171875 38.671875 18.015625 34.390625 
Q 13.875 30.125 13.875 23.1875 
" id="ArialMT-36"/>
     </defs>
     <g transform="translate(72.245413 303.07964)scale(0.16 -0.16)">
      <use xlink:href="#ArialMT-2212"/>
      <use x="58.398438" xlink:href="#ArialMT-30"/>
      <use x="114.013672" xlink:href="#ArialMT-2e"/>
      <use x="141.796875" xlink:href="#ArialMT-36"/>
     </g>
    </g>
   </g>
   <g id="xtick_3">
    <g id="line2d_4">
     <path d="M 124.959377 283.890455 
L 121.62069 286.140439 
" style="fill:none;stroke:#000000;stroke-linecap:square;stroke-width:0.8;"/>
    </g>
    <g id="text_3">
     <!-- −0.5 -->
     <defs>
      <path d="M 4.15625 18.75 
L 13.375 19.53125 
Q 14.40625 12.796875 18.140625 9.390625 
Q 21.875 6 27.15625 6 
Q 33.5 6 37.890625 10.78125 
Q 42.28125 15.578125 42.28125 23.484375 
Q 42.28125 31 38.0625 35.34375 
Q 33.84375 39.703125 27 39.703125 
Q 22.75 39.703125 19.328125 37.765625 
Q 15.921875 35.84375 13.96875 32.765625 
L 5.71875 33.84375 
L 12.640625 70.609375 
L 48.25 70.609375 
L 48.25 62.203125 
L 19.671875 62.203125 
L 15.828125 42.96875 
Q 22.265625 47.46875 29.34375 47.46875 
Q 38.71875 47.46875 45.15625 40.96875 
Q 51.609375 34.46875 51.609375 24.265625 
Q 51.609375 14.546875 45.953125 7.46875 
Q 39.0625 -1.21875 27.15625 -1.21875 
Q 17.390625 -1.21875 11.203125 4.25 
Q 5.03125 9.71875 4.15625 18.75 
" id="ArialMT-35"/>
     </defs>
     <g transform="translate(100.754467 310.170284)scale(0.16 -0.16)">
      <use xlink:href="#ArialMT-2212"/>
      <use x="58.398438" xlink:href="#ArialMT-30"/>
      <use x="114.013672" xlink:href="#ArialMT-2e"/>
      <use x="141.796875" xlink:href="#ArialMT-35"/>
     </g>
    </g>
   </g>
   <g id="xtick_4">
    <g id="line2d_5">
     <path d="M 153.79689 290.962602 
L 150.493045 293.239336 
" style="fill:none;stroke:#000000;stroke-linecap:square;stroke-width:0.8;"/>
    </g>
    <g id="text_4">
     <!-- −0.4 -->
     <defs>
      <path d="M 32.328125 0 
L 32.328125 17.140625 
L 1.265625 17.140625 
L 1.265625 25.203125 
L 33.9375 71.578125 
L 41.109375 71.578125 
L 41.109375 25.203125 
L 50.78125 25.203125 
L 50.78125 17.140625 
L 41.109375 17.140625 
L 41.109375 0 
z
M 32.328125 25.203125 
L 32.328125 57.46875 
L 9.90625 25.203125 
z
" id="ArialMT-34"/>
     </defs>
     <g transform="translate(129.601855 317.345076)scale(0.16 -0.16)">
      <use xlink:href="#ArialMT-2212"/>
      <use x="58.398438" xlink:href="#ArialMT-30"/>
      <use x="114.013672" xlink:href="#ArialMT-2e"/>
      <use x="141.796875" xlink:href="#ArialMT-34"/>
     </g>
    </g>
   </g>
   <g id="xtick_5">
    <g id="line2d_6">
     <path d="M 182.97796 298.119003 
L 179.710028 300.422968 
" style="fill:none;stroke:#000000;stroke-linecap:square;stroke-width:0.8;"/>
    </g>
    <g id="text_5">
     <!-- −0.3 -->
     <defs>
      <path d="M 4.203125 18.890625 
L 12.984375 20.0625 
Q 14.5 12.59375 18.140625 9.296875 
Q 21.78125 6 27 6 
Q 33.203125 6 37.46875 10.296875 
Q 41.75 14.59375 41.75 20.953125 
Q 41.75 27 37.796875 30.921875 
Q 33.84375 34.859375 27.734375 34.859375 
Q 25.25 34.859375 21.53125 33.890625 
L 22.515625 41.609375 
Q 23.390625 41.5 23.921875 41.5 
Q 29.546875 41.5 34.03125 44.421875 
Q 38.53125 47.359375 38.53125 53.46875 
Q 38.53125 58.296875 35.25 61.46875 
Q 31.984375 64.65625 26.8125 64.65625 
Q 21.6875 64.65625 18.265625 61.421875 
Q 14.84375 58.203125 13.875 51.765625 
L 5.078125 53.328125 
Q 6.6875 62.15625 12.390625 67.015625 
Q 18.109375 71.875 26.609375 71.875 
Q 32.46875 71.875 37.390625 69.359375 
Q 42.328125 66.84375 44.9375 62.5 
Q 47.5625 58.15625 47.5625 53.265625 
Q 47.5625 48.640625 45.0625 44.828125 
Q 42.578125 41.015625 37.703125 38.765625 
Q 44.046875 37.3125 47.5625 32.6875 
Q 51.078125 28.078125 51.078125 21.140625 
Q 51.078125 11.765625 44.234375 5.25 
Q 37.40625 -1.265625 26.953125 -1.265625 
Q 17.53125 -1.265625 11.296875 4.34375 
Q 5.078125 9.96875 4.203125 18.890625 
" id="ArialMT-33"/>
     </defs>
     <g transform="translate(158.793635 324.605525)scale(0.16 -0.16)">
      <use xlink:href="#ArialMT-2212"/>
      <use x="58.398438" xlink:href="#ArialMT-30"/>
      <use x="114.013672" xlink:href="#ArialMT-2e"/>
      <use x="141.796875" xlink:href="#ArialMT-33"/>
     </g>
    </g>
   </g>
   <g id="xtick_6">
    <g id="line2d_7">
     <path d="M 212.508765 305.361174 
L 209.277848 307.692861 
" style="fill:none;stroke:#000000;stroke-linecap:square;stroke-width:0.8;"/>
    </g>
    <g id="text_6">
     <!-- −0.2 -->
     <defs>
      <path d="M 50.34375 8.453125 
L 50.34375 0 
L 3.03125 0 
Q 2.9375 3.171875 4.046875 6.109375 
Q 5.859375 10.9375 9.828125 15.625 
Q 13.8125 20.3125 21.34375 26.46875 
Q 33.015625 36.03125 37.109375 41.625 
Q 41.21875 47.21875 41.21875 52.203125 
Q 41.21875 57.421875 37.46875 61 
Q 33.734375 64.59375 27.734375 64.59375 
Q 21.390625 64.59375 17.578125 60.78125 
Q 13.765625 56.984375 13.71875 50.25 
L 4.6875 51.171875 
Q 5.609375 61.28125 11.65625 66.578125 
Q 17.71875 71.875 27.9375 71.875 
Q 38.234375 71.875 44.234375 66.15625 
Q 50.25 60.453125 50.25 52 
Q 50.25 47.703125 48.484375 43.546875 
Q 46.734375 39.40625 42.65625 34.8125 
Q 38.578125 30.21875 29.109375 22.21875 
Q 21.1875 15.578125 18.9375 13.203125 
Q 16.703125 10.84375 15.234375 8.453125 
z
" id="ArialMT-32"/>
     </defs>
     <g transform="translate(188.336012 331.953172)scale(0.16 -0.16)">
      <use xlink:href="#ArialMT-2212"/>
      <use x="58.398438" xlink:href="#ArialMT-30"/>
      <use x="114.013672" xlink:href="#ArialMT-2e"/>
      <use x="141.796875" xlink:href="#ArialMT-32"/>
     </g>
    </g>
   </g>
   <g id="xtick_7">
    <g id="line2d_8">
     <path d="M 242.395629 312.690665 
L 239.202861 315.050578 
" style="fill:none;stroke:#000000;stroke-linecap:square;stroke-width:0.8;"/>
    </g>
    <g id="text_7">
     <!-- −0.1 -->
     <defs>
      <path d="M 37.25 0 
L 28.46875 0 
L 28.46875 56 
Q 25.296875 52.984375 20.140625 49.953125 
Q 14.984375 46.921875 10.890625 45.40625 
L 10.890625 53.90625 
Q 18.265625 57.375 23.78125 62.296875 
Q 29.296875 67.234375 31.59375 71.875 
L 37.25 71.875 
z
" id="ArialMT-31"/>
     </defs>
     <g transform="translate(218.235341 339.389599)scale(0.16 -0.16)">
      <use xlink:href="#ArialMT-2212"/>
      <use x="58.398438" xlink:href="#ArialMT-30"/>
      <use x="114.013672" xlink:href="#ArialMT-2e"/>
      <use x="141.796875" xlink:href="#ArialMT-31"/>
     </g>
    </g>
   </g>
   <g id="xtick_8">
    <g id="line2d_9">
     <path d="M 272.645032 320.109065 
L 269.49158 322.49772 
" style="fill:none;stroke:#000000;stroke-linecap:square;stroke-width:0.8;"/>
    </g>
    <g id="text_8">
     <!-- 0.0 -->
     <g transform="translate(253.170628 346.916423)scale(0.16 -0.16)">
      <use xlink:href="#ArialMT-30"/>
      <use x="55.615234" xlink:href="#ArialMT-2e"/>
      <use x="83.398438" xlink:href="#ArialMT-30"/>
     </g>
    </g>
   </g>
  </g>
  <g id="axis3d_2">
   <g id="line2d_10">
    <path d="M 406.608193 231.872667 
L 285.8629 324.406266 
" style="fill:none;stroke:#000000;stroke-linecap:square;stroke-width:0.8;"/>
   </g>
   <g id="Line3DCollection_2">
    <path d="M 62.381804 92.79138 
L 71.321276 262.658656 
L 295.262648 317.202735 
" style="fill:none;stroke:#b0b0b0;stroke-width:0.8;"/>
    <path d="M 82.712115 81.67528 
L 90.525507 250.320196 
L 312.886257 303.696818 
" style="fill:none;stroke:#b0b0b0;stroke-width:0.8;"/>
    <path d="M 102.596824 70.802825 
L 109.329963 238.238587 
L 330.126307 290.484841 
" style="fill:none;stroke:#b0b0b0;stroke-width:0.8;"/>
    <path d="M 122.050423 60.16609 
L 127.746998 226.40589 
L 346.995187 277.557314 
" style="fill:none;stroke:#b0b0b0;stroke-width:0.8;"/>
    <path d="M 141.086781 49.757492 
L 145.788464 214.814491 
L 363.504754 264.905146 
" style="fill:none;stroke:#b0b0b0;stroke-width:0.8;"/>
    <path d="M 159.71918 39.569769 
L 163.465732 203.457084 
L 379.666368 252.519634 
" style="fill:none;stroke:#b0b0b0;stroke-width:0.8;"/>
    <path d="M 177.960341 29.595963 
L 180.789721 192.326655 
L 395.490914 240.392434 
" style="fill:none;stroke:#b0b0b0;stroke-width:0.8;"/>
   </g>
   <g id="xtick_9">
    <g id="line2d_11">
     <path d="M 293.388515 316.746263 
L 299.015101 318.116698 
" style="fill:none;stroke:#000000;stroke-linecap:square;stroke-width:0.8;"/>
    </g>
    <g id="text_9">
     <!-- 0.0 -->
     <g transform="translate(296.798929 340.851228)scale(0.16 -0.16)">
      <use xlink:href="#ArialMT-30"/>
      <use x="55.615234" xlink:href="#ArialMT-2e"/>
      <use x="83.398438" xlink:href="#ArialMT-30"/>
     </g>
    </g>
   </g>
   <g id="xtick_10">
    <g id="line2d_12">
     <path d="M 311.026253 303.250333 
L 316.610372 304.590774 
" style="fill:none;stroke:#000000;stroke-linecap:square;stroke-width:0.8;"/>
    </g>
    <g id="text_10">
     <!-- 0.1 -->
     <g transform="translate(314.276489 327.216446)scale(0.16 -0.16)">
      <use xlink:href="#ArialMT-30"/>
      <use x="55.615234" xlink:href="#ArialMT-2e"/>
      <use x="83.398438" xlink:href="#ArialMT-31"/>
     </g>
    </g>
   </g>
   <g id="xtick_11">
    <g id="line2d_13">
     <path d="M 328.280266 290.048019 
L 333.822423 291.35944 
" style="fill:none;stroke:#000000;stroke-linecap:square;stroke-width:0.8;"/>
    </g>
    <g id="text_11">
     <!-- 0.2 -->
     <g transform="translate(331.373815 313.878296)scale(0.16 -0.16)">
      <use xlink:href="#ArialMT-30"/>
      <use x="55.615234" xlink:href="#ArialMT-2e"/>
      <use x="83.398438" xlink:href="#ArialMT-32"/>
     </g>
    </g>
   </g>
   <g id="xtick_12">
    <g id="line2d_14">
     <path d="M 345.16294 277.129844 
L 350.663639 278.413178 
" style="fill:none;stroke:#000000;stroke-linecap:square;stroke-width:0.8;"/>
    </g>
    <g id="text_12">
     <!-- 0.3 -->
     <g transform="translate(348.103184 300.827201)scale(0.16 -0.16)">
      <use xlink:href="#ArialMT-30"/>
      <use x="55.615234" xlink:href="#ArialMT-2e"/>
      <use x="83.398438" xlink:href="#ArialMT-33"/>
     </g>
    </g>
   </g>
   <g id="xtick_13">
    <g id="line2d_15">
     <path d="M 361.686137 264.486732 
L 367.145876 265.742871 
" style="fill:none;stroke:#000000;stroke-linecap:square;stroke-width:0.8;"/>
    </g>
    <g id="text_13">
     <!-- 0.4 -->
     <g transform="translate(364.476347 288.053994)scale(0.16 -0.16)">
      <use xlink:href="#ArialMT-30"/>
      <use x="55.615234" xlink:href="#ArialMT-2e"/>
      <use x="83.398438" xlink:href="#ArialMT-34"/>
     </g>
    </g>
   </g>
   <g id="xtick_14">
    <g id="line2d_16">
     <path d="M 377.861216 252.10999 
L 383.280491 253.339789 
" style="fill:none;stroke:#000000;stroke-linecap:square;stroke-width:0.8;"/>
    </g>
    <g id="text_14">
     <!-- 0.5 -->
     <g transform="translate(380.50456 275.549892)scale(0.16 -0.16)">
      <use xlink:href="#ArialMT-30"/>
      <use x="55.615234" xlink:href="#ArialMT-2e"/>
      <use x="83.398438" xlink:href="#ArialMT-35"/>
     </g>
    </g>
   </g>
   <g id="xtick_15">
    <g id="line2d_17">
     <path d="M 393.699064 239.991288 
L 399.078367 241.195568 
" style="fill:none;stroke:#000000;stroke-linecap:square;stroke-width:0.8;"/>
    </g>
    <g id="text_15">
     <!-- 0.6 -->
     <g transform="translate(396.198611 263.30648)scale(0.16 -0.16)">
      <use xlink:href="#ArialMT-30"/>
      <use x="55.615234" xlink:href="#ArialMT-2e"/>
      <use x="83.398438" xlink:href="#ArialMT-36"/>
     </g>
    </g>
   </g>
  </g>
  <g id="axis3d_3">
   <g id="line2d_18">
    <path d="M 406.608193 231.872667 
L 415.546579 65.078886 
" style="fill:none;stroke:#000000;stroke-linecap:square;stroke-width:0.8;"/>
   </g>
   <g id="Line3DCollection_3">
    <path d="M 408.067522 204.64102 
L 192.610393 158.018549 
L 59.529371 241.435694 
" style="fill:none;stroke:#b0b0b0;stroke-width:0.8;"/>
    <path d="M 409.824947 171.846772 
L 192.178232 126.151194 
L 57.653415 207.937602 
" style="fill:none;stroke:#b0b0b0;stroke-width:0.8;"/>
    <path d="M 411.618776 138.373217 
L 191.737502 93.65188 
L 55.73729 173.722237 
" style="fill:none;stroke:#b0b0b0;stroke-width:0.8;"/>
    <path d="M 413.450152 104.199027 
L 191.287943 60.501619 
L 53.779693 138.766311 
" style="fill:none;stroke:#b0b0b0;stroke-width:0.8;"/>
    <path d="M 415.320266 69.301973 
L 190.829289 26.680656 
L 51.779261 103.045518 
" style="fill:none;stroke:#b0b0b0;stroke-width:0.8;"/>
   </g>
   <g id="xtick_16">
    <g id="line2d_19">
     <path d="M 406.269279 204.251901 
L 411.667776 205.420075 
" style="fill:none;stroke:#000000;stroke-linecap:square;stroke-width:0.8;"/>
    </g>
    <g id="text_16">
     <!-- 0.0 -->
     <g transform="translate(415.392172 214.146345)scale(0.16 -0.16)">
      <use xlink:href="#ArialMT-30"/>
      <use x="55.615234" xlink:href="#ArialMT-2e"/>
      <use x="83.398438" xlink:href="#ArialMT-30"/>
     </g>
    </g>
   </g>
   <g id="xtick_17">
    <g id="line2d_20">
     <path d="M 408.007658 171.465227 
L 413.463374 172.610671 
" style="fill:none;stroke:#000000;stroke-linecap:square;stroke-width:0.8;"/>
    </g>
    <g id="text_17">
     <!-- 0.2 -->
     <g transform="translate(417.335238 181.390025)scale(0.16 -0.16)">
      <use xlink:href="#ArialMT-30"/>
      <use x="55.615234" xlink:href="#ArialMT-2e"/>
      <use x="83.398438" xlink:href="#ArialMT-32"/>
     </g>
    </g>
   </g>
   <g id="xtick_18">
    <g id="line2d_21">
     <path d="M 409.782033 137.999645 
L 415.296193 139.121162 
" style="fill:none;stroke:#000000;stroke-linecap:square;stroke-width:0.8;"/>
    </g>
    <g id="text_18">
     <!-- 0.4 -->
     <g transform="translate(419.318482 147.956392)scale(0.16 -0.16)">
      <use xlink:href="#ArialMT-30"/>
      <use x="55.615234" xlink:href="#ArialMT-2e"/>
      <use x="83.398438" xlink:href="#ArialMT-34"/>
     </g>
    </g>
   </g>
   <g id="xtick_19">
    <g id="line2d_22">
     <path d="M 411.593534 103.833847 
L 417.167402 104.930179 
" style="fill:none;stroke:#000000;stroke-linecap:square;stroke-width:0.8;"/>
    </g>
    <g id="text_19">
     <!-- 0.6 -->
     <g transform="translate(421.343163 113.824221)scale(0.16 -0.16)">
      <use xlink:href="#ArialMT-30"/>
      <use x="55.615234" xlink:href="#ArialMT-2e"/>
      <use x="83.398438" xlink:href="#ArialMT-36"/>
     </g>
    </g>
   </g>
   <g id="xtick_20">
    <g id="line2d_23">
     <path d="M 413.443339 68.945624 
L 419.078221 70.015449 
" style="fill:none;stroke:#000000;stroke-linecap:square;stroke-width:0.8;"/>
    </g>
    <g id="text_20">
     <!-- 0.8 -->
     <defs>
      <path d="M 17.671875 38.8125 
Q 12.203125 40.828125 9.5625 44.53125 
Q 6.9375 48.25 6.9375 53.421875 
Q 6.9375 61.234375 12.546875 66.546875 
Q 18.171875 71.875 27.484375 71.875 
Q 36.859375 71.875 42.578125 66.421875 
Q 48.296875 60.984375 48.296875 53.171875 
Q 48.296875 48.1875 45.671875 44.5 
Q 43.0625 40.828125 37.75 38.8125 
Q 44.34375 36.671875 47.78125 31.875 
Q 51.21875 27.09375 51.21875 20.453125 
Q 51.21875 11.28125 44.71875 5.03125 
Q 38.234375 -1.21875 27.640625 -1.21875 
Q 17.046875 -1.21875 10.546875 5.046875 
Q 4.046875 11.328125 4.046875 20.703125 
Q 4.046875 27.6875 7.59375 32.390625 
Q 11.140625 37.109375 17.671875 38.8125 
M 15.921875 53.71875 
Q 15.921875 48.640625 19.1875 45.40625 
Q 22.46875 42.1875 27.6875 42.1875 
Q 32.765625 42.1875 36.015625 45.375 
Q 39.265625 48.578125 39.265625 53.21875 
Q 39.265625 58.0625 35.90625 61.359375 
Q 32.5625 64.65625 27.59375 64.65625 
Q 22.5625 64.65625 19.234375 61.421875 
Q 15.921875 58.203125 15.921875 53.71875 
M 13.09375 20.65625 
Q 13.09375 16.890625 14.875 13.375 
Q 16.65625 9.859375 20.171875 7.921875 
Q 23.6875 6 27.734375 6 
Q 34.03125 6 38.125 10.046875 
Q 42.234375 14.109375 42.234375 20.359375 
Q 42.234375 26.703125 38.015625 30.859375 
Q 33.796875 35.015625 27.4375 35.015625 
Q 21.234375 35.015625 17.15625 30.90625 
Q 13.09375 26.8125 13.09375 20.65625 
" id="ArialMT-38"/>
     </defs>
     <g transform="translate(423.410592 78.971388)scale(0.16 -0.16)">
      <use xlink:href="#ArialMT-30"/>
      <use x="55.615234" xlink:href="#ArialMT-2e"/>
      <use x="83.398438" xlink:href="#ArialMT-38"/>
     </g>
    </g>
   </g>
  </g>
  <g id="axes_1">
   <g id="Path3DCollection_1">
    <defs>
     <path d="M 0 2.236068 
C 0.593012 2.236068 1.161816 2.000462 1.581139 1.581139 
C 2.000462 1.161816 2.236068 0.593012 2.236068 0 
C 2.236068 -0.593012 2.000462 -1.161816 1.581139 -1.581139 
C 1.161816 -2.000462 0.593012 -2.236068 0 -2.236068 
C -0.593012 -2.236068 -1.161816 -2.000462 -1.581139 -1.581139 
C -2.000462 -1.161816 -2.236068 -0.593012 -2.236068 0 
C -2.236068 0.593012 -2.000462 1.161816 -1.581139 1.581139 
C -1.161816 2.000462 -0.593012 2.236068 0 2.236068 
z
" id="m4544a84035" style="stroke:#0000ff;"/>
    </defs>
    <g clip-path="url(#peefd69b85a)">
     <use style="fill:#0000ff;stroke:#0000ff;" x="385.348919" xlink:href="#m4544a84035" y="217.928765"/>
    </g>
   </g>
   <g id="Path3DCollection_2">
    <defs>
     <path d="M 0 2.236068 
C 0.593012 2.236068 1.161816 2.000462 1.581139 1.581139 
C 2.000462 1.161816 2.236068 0.593012 2.236068 0 
C 2.236068 -0.593012 2.000462 -1.161816 1.581139 -1.581139 
C 1.161816 -2.000462 0.593012 -2.236068 0 -2.236068 
C -0.593012 -2.236068 -1.161816 -2.000462 -1.581139 -1.581139 
C -2.000462 -1.161816 -2.236068 -0.593012 -2.236068 0 
C -2.236068 0.593012 -2.000462 1.161816 -1.581139 1.581139 
C -1.161816 2.000462 -0.593012 2.236068 0 2.236068 
z
" id="m6e460b751a" style="stroke:#ff0000;"/>
    </defs>
    <g clip-path="url(#peefd69b85a)">
     <use style="fill:#ff0000;stroke:#ff0000;" x="377.57278" xlink:href="#m6e460b751a" y="214.662688"/>
    </g>
   </g>
   <g id="Path3DCollection_3">
    <g clip-path="url(#peefd69b85a)">
     <use style="fill:#ff0000;stroke:#ff0000;" x="377.57278" xlink:href="#m6e460b751a" y="214.662688"/>
    </g>
   </g>
   <g id="line2d_24">
    <path clip-path="url(#peefd69b85a)" d="M 353.960869 234.927051 
L 354.120426 230.617859 
" style="fill:none;stroke:#000000;stroke-dasharray:16,8,4,8,4,8;stroke-dashoffset:0;stroke-width:1.5;"/>
   </g>
   <g id="line2d_25">
    <path clip-path="url(#peefd69b85a)" d="M 285.785102 170.201486 
L 284.147386 277.929396 
" style="fill:none;stroke:#000000;stroke-dasharray:16,8,4,8,4,8;stroke-dashoffset:0;stroke-width:1.5;"/>
   </g>
   <g id="line2d_26">
    <path clip-path="url(#peefd69b85a)" d="M 82.202744 233.27604 
L 82.479926 238.966925 
" style="fill:none;stroke:#000000;stroke-dasharray:16,8,4,8,4,8;stroke-dashoffset:0;stroke-width:1.5;"/>
   </g>
   <g id="line2d_27">
    <path clip-path="url(#peefd69b85a)" d="M 371.291881 225.951873 
L 371.652279 217.447155 
" style="fill:none;stroke:#000000;stroke-dasharray:16,8,4,8,4,8;stroke-dashoffset:0;stroke-width:1.5;"/>
   </g>
   <g id="line2d_28">
    <path clip-path="url(#peefd69b85a)" d="M 100.329465 260.602236 
L 99.57105 243.112283 
" style="fill:none;stroke:#000000;stroke-dasharray:16,8,4,8,4,8;stroke-dashoffset:0;stroke-width:1.5;"/>
   </g>
   <g id="line2d_29">
    <path clip-path="url(#peefd69b85a)" d="M 345.431991 217.132382 
L 344.746438 237.2107 
" style="fill:none;stroke:#000000;stroke-dasharray:16,8,4,8,4,8;stroke-dashoffset:0;stroke-width:1.5;"/>
   </g>
   <g id="line2d_30">
    <path clip-path="url(#peefd69b85a)" d="M 258.968235 143.695953 
L 258.049431 277.77045 
" style="fill:none;stroke:#000000;stroke-dasharray:16,8,4,8,4,8;stroke-dashoffset:0;stroke-width:1.5;"/>
   </g>
   <g id="line2d_31">
    <path clip-path="url(#peefd69b85a)" d="M 385.348919 217.928765 
L 385.870125 206.763722 
" style="fill:none;stroke:#000000;stroke-dasharray:16,8,4,8,4,8;stroke-dashoffset:0;stroke-width:1.5;"/>
   </g>
   <g id="line2d_32">
    <path clip-path="url(#peefd69b85a)" d="M 159.598033 270.394082 
L 159.267827 256.961941 
" style="fill:none;stroke:#000000;stroke-dasharray:16,8,4,8,4,8;stroke-dashoffset:0;stroke-width:1.5;"/>
   </g>
   <g id="line2d_33">
    <path clip-path="url(#peefd69b85a)" d="M 377.57278 214.662688 
L 377.653355 212.839539 
" style="fill:none;stroke:#000000;stroke-dasharray:16,8,4,8,4,8;stroke-dashoffset:0;stroke-width:1.5;"/>
   </g>
   <g id="line2d_34">
    <path clip-path="url(#peefd69b85a)" d="M 339.711038 249.705181 
L 339.985872 241.296013 
" style="fill:none;stroke:#000000;stroke-dasharray:16,8,4,8,4,8;stroke-dashoffset:0;stroke-width:1.5;"/>
   </g>
   <g id="line2d_35">
    <path clip-path="url(#peefd69b85a)" d="M 171.986307 264.885018 
L 171.882627 259.850419 
" style="fill:none;stroke:#000000;stroke-dasharray:16,8,4,8,4,8;stroke-dashoffset:0;stroke-width:1.5;"/>
   </g>
   <g id="line2d_36">
    <path clip-path="url(#peefd69b85a)" d="M 339.711038 249.705181 
L 339.985872 241.296013 
" style="fill:none;stroke:#000000;stroke-dasharray:16,8,4,8,4,8;stroke-dashoffset:0;stroke-width:1.5;"/>
   </g>
   <g id="line2d_37">
    <path clip-path="url(#peefd69b85a)" d="M 138.503925 262.679553 
L 138.171611 252.041557 
" style="fill:none;stroke:#000000;stroke-dasharray:16,8,4,8,4,8;stroke-dashoffset:0;stroke-width:1.5;"/>
   </g>
   <g id="line2d_38">
    <path clip-path="url(#peefd69b85a)" d="M 138.503925 262.679553 
L 138.171611 252.041557 
" style="fill:none;stroke:#000000;stroke-dasharray:16,8,4,8,4,8;stroke-dashoffset:0;stroke-width:1.5;"/>
   </g>
   <g id="line2d_39">
    <path clip-path="url(#peefd69b85a)" d="M 377.57278 214.662688 
L 377.653355 212.839539 
" style="fill:none;stroke:#000000;stroke-dasharray:16,8,4,8,4,8;stroke-dashoffset:0;stroke-width:1.5;"/>
   </g>
   <g id="line2d_40">
    <path clip-path="url(#peefd69b85a)" d="M 334.467426 251.910144 
L 334.673074 245.285311 
" style="fill:none;stroke:#000000;stroke-dasharray:16,8,4,8,4,8;stroke-dashoffset:0;stroke-width:1.5;"/>
   </g>
   <g id="line2d_41">
    <path clip-path="url(#peefd69b85a)" d="M 138.503925 262.679553 
L 138.171611 252.041557 
" style="fill:none;stroke:#000000;stroke-dasharray:16,8,4,8,4,8;stroke-dashoffset:0;stroke-width:1.5;"/>
   </g>
   <g id="line2d_42">
    <path clip-path="url(#peefd69b85a)" d="M 276.944825 179.896596 
L 275.680498 280.994676 
" style="fill:none;stroke:#000000;stroke-dasharray:16,8,4,8,4,8;stroke-dashoffset:0;stroke-width:1.5;"/>
   </g>
   <g id="line2d_43">
    <path clip-path="url(#peefd69b85a)" d="M 275.49976 228.018831 
L 274.82505 283.140367 
" style="fill:none;stroke:#000000;stroke-dasharray:16,8,4,8,4,8;stroke-dashoffset:0;stroke-width:1.5;"/>
   </g>
   <g id="line2d_44">
    <path clip-path="url(#peefd69b85a)" d="M 216.714331 212.47194 
L 217.071483 269.711146 
" style="fill:none;stroke:#000000;stroke-dasharray:16,8,4,8,4,8;stroke-dashoffset:0;stroke-width:1.5;"/>
   </g>
   <g id="line2d_45">
    <path clip-path="url(#peefd69b85a)" d="M 302.445897 215.751922 
L 301.352753 268.699956 
" style="fill:none;stroke:#000000;stroke-dasharray:16,8,4,8,4,8;stroke-dashoffset:0;stroke-width:1.5;"/>
   </g>
   <g id="line2d_46">
    <path clip-path="url(#peefd69b85a)" d="M 276.944825 179.896596 
L 275.680498 280.994676 
" style="fill:none;stroke:#000000;stroke-dasharray:16,8,4,8,4,8;stroke-dashoffset:0;stroke-width:1.5;"/>
   </g>
   <g id="line2d_47">
    <path clip-path="url(#peefd69b85a)" d="M 171.986307 264.885018 
L 171.882627 259.850419 
" style="fill:none;stroke:#000000;stroke-dasharray:16,8,4,8,4,8;stroke-dashoffset:0;stroke-width:1.5;"/>
   </g>
   <g id="Path3DCollection_4">
    <g clip-path="url(#peefd69b85a)">
     <use style="fill:#0000ff;stroke:#0000ff;" x="371.291881" xlink:href="#m4544a84035" y="225.951873"/>
    </g>
   </g>
   <g id="text_21">
    <!-- 1 -->
    <g transform="translate(353.57356 245.387205)scale(0.16 -0.16)">
     <use xlink:href="#ArialMT-31"/>
    </g>
   </g>
   <g id="text_22">
    <!-- 2 -->
    <g transform="translate(285.4609 191.527298)scale(0.16 -0.16)">
     <use xlink:href="#ArialMT-32"/>
    </g>
   </g>
   <g id="text_23">
    <!-- 3 -->
    <g transform="translate(80.065075 189.387189)scale(0.16 -0.16)">
     <use xlink:href="#ArialMT-33"/>
    </g>
   </g>
   <g id="text_24">
    <!-- 4 -->
    <g transform="translate(372.195972 204.617029)scale(0.16 -0.16)">
     <use xlink:href="#ArialMT-34"/>
    </g>
   </g>
   <g id="text_25">
    <!-- 5 -->
    <g transform="translate(99.287613 236.575871)scale(0.16 -0.16)">
     <use xlink:href="#ArialMT-35"/>
    </g>
   </g>
   <g id="text_26">
    <!-- 6 -->
    <g transform="translate(346.600403 182.912193)scale(0.16 -0.16)">
     <use xlink:href="#ArialMT-36"/>
    </g>
   </g>
   <g id="text_27">
    <!-- 7 -->
    <g transform="translate(259.13345 119.587283)scale(0.16 -0.16)">
     <use xlink:href="#ArialMT-37"/>
    </g>
   </g>
   <g id="text_28">
    <!-- 8 -->
    <g transform="translate(385.757407 209.178306)scale(0.16 -0.16)">
     <use xlink:href="#ArialMT-38"/>
    </g>
   </g>
   <g id="text_29">
    <!-- 9 -->
    <defs>
     <path d="M 5.46875 16.546875 
L 13.921875 17.328125 
Q 14.984375 11.375 18.015625 8.6875 
Q 21.046875 6 25.78125 6 
Q 29.828125 6 32.875 7.859375 
Q 35.9375 9.71875 37.890625 12.8125 
Q 39.84375 15.921875 41.15625 21.1875 
Q 42.484375 26.46875 42.484375 31.9375 
Q 42.484375 32.515625 42.4375 33.6875 
Q 39.796875 29.5 35.234375 26.875 
Q 30.671875 24.265625 25.34375 24.265625 
Q 16.453125 24.265625 10.296875 30.703125 
Q 4.15625 37.15625 4.15625 47.703125 
Q 4.15625 58.59375 10.578125 65.234375 
Q 17 71.875 26.65625 71.875 
Q 33.640625 71.875 39.421875 68.109375 
Q 45.21875 64.359375 48.21875 57.390625 
Q 51.21875 50.4375 51.21875 37.25 
Q 51.21875 23.53125 48.234375 15.40625 
Q 45.265625 7.28125 39.375 3.03125 
Q 33.5 -1.21875 25.59375 -1.21875 
Q 17.1875 -1.21875 11.859375 3.4375 
Q 6.546875 8.109375 5.46875 16.546875 
M 41.453125 48.140625 
Q 41.453125 55.71875 37.421875 60.15625 
Q 33.40625 64.59375 27.734375 64.59375 
Q 21.875 64.59375 17.53125 59.8125 
Q 13.1875 55.03125 13.1875 47.40625 
Q 13.1875 40.578125 17.3125 36.296875 
Q 21.4375 32.03125 27.484375 32.03125 
Q 33.59375 32.03125 37.515625 36.296875 
Q 41.453125 40.578125 41.453125 48.140625 
" id="ArialMT-39"/>
    </defs>
    <g transform="translate(158.63313 231.14367)scale(0.16 -0.16)">
     <use xlink:href="#ArialMT-39"/>
    </g>
   </g>
   <g id="text_30">
    <!-- wikileaks -->
    <defs>
     <path d="M 16.15625 0 
L 0.296875 51.859375 
L 9.375 51.859375 
L 17.625 21.921875 
L 20.703125 10.796875 
Q 20.90625 11.625 23.390625 21.484375 
L 31.640625 51.859375 
L 40.671875 51.859375 
L 48.4375 21.78125 
L 51.03125 11.859375 
L 54 21.875 
L 62.890625 51.859375 
L 71.4375 51.859375 
L 55.21875 0 
L 46.09375 0 
L 37.84375 31.0625 
L 35.84375 39.890625 
L 25.34375 0 
z
" id="ArialMT-77"/>
     <path d="M 6.640625 61.46875 
L 6.640625 71.578125 
L 15.4375 71.578125 
L 15.4375 61.46875 
z
M 6.640625 0 
L 6.640625 51.859375 
L 15.4375 51.859375 
L 15.4375 0 
z
" id="ArialMT-69"/>
     <path d="M 6.640625 0 
L 6.640625 71.578125 
L 15.4375 71.578125 
L 15.4375 30.765625 
L 36.234375 51.859375 
L 47.609375 51.859375 
L 27.78125 32.625 
L 49.609375 0 
L 38.765625 0 
L 21.625 26.515625 
L 15.4375 20.5625 
L 15.4375 0 
z
" id="ArialMT-6b"/>
     <path d="M 6.390625 0 
L 6.390625 71.578125 
L 15.1875 71.578125 
L 15.1875 0 
z
" id="ArialMT-6c"/>
     <path d="M 42.09375 16.703125 
L 51.171875 15.578125 
Q 49.03125 7.625 43.21875 3.21875 
Q 37.40625 -1.171875 28.375 -1.171875 
Q 17 -1.171875 10.328125 5.828125 
Q 3.65625 12.84375 3.65625 25.484375 
Q 3.65625 38.578125 10.390625 45.796875 
Q 17.140625 53.03125 27.875 53.03125 
Q 38.28125 53.03125 44.875 45.953125 
Q 51.46875 38.875 51.46875 26.03125 
Q 51.46875 25.25 51.421875 23.6875 
L 12.75 23.6875 
Q 13.234375 15.140625 17.578125 10.59375 
Q 21.921875 6.0625 28.421875 6.0625 
Q 33.25 6.0625 36.671875 8.59375 
Q 40.09375 11.140625 42.09375 16.703125 
M 13.234375 30.90625 
L 42.1875 30.90625 
Q 41.609375 37.453125 38.875 40.71875 
Q 34.671875 45.796875 27.984375 45.796875 
Q 21.921875 45.796875 17.796875 41.75 
Q 13.671875 37.703125 13.234375 30.90625 
" id="ArialMT-65"/>
     <path d="M 40.4375 6.390625 
Q 35.546875 2.25 31.03125 0.53125 
Q 26.515625 -1.171875 21.34375 -1.171875 
Q 12.796875 -1.171875 8.203125 3 
Q 3.609375 7.171875 3.609375 13.671875 
Q 3.609375 17.484375 5.34375 20.625 
Q 7.078125 23.78125 9.890625 25.6875 
Q 12.703125 27.59375 16.21875 28.5625 
Q 18.796875 29.25 24.03125 29.890625 
Q 34.671875 31.15625 39.703125 32.90625 
Q 39.75 34.71875 39.75 35.203125 
Q 39.75 40.578125 37.25 42.78125 
Q 33.890625 45.75 27.25 45.75 
Q 21.046875 45.75 18.09375 43.578125 
Q 15.140625 41.40625 13.71875 35.890625 
L 5.125 37.0625 
Q 6.296875 42.578125 8.984375 45.96875 
Q 11.671875 49.359375 16.75 51.1875 
Q 21.828125 53.03125 28.515625 53.03125 
Q 35.15625 53.03125 39.296875 51.46875 
Q 43.453125 49.90625 45.40625 47.53125 
Q 47.359375 45.171875 48.140625 41.546875 
Q 48.578125 39.3125 48.578125 33.453125 
L 48.578125 21.734375 
Q 48.578125 9.46875 49.140625 6.21875 
Q 49.703125 2.984375 51.375 0 
L 42.1875 0 
Q 40.828125 2.734375 40.4375 6.390625 
M 39.703125 26.03125 
Q 34.90625 24.078125 25.34375 22.703125 
Q 19.921875 21.921875 17.671875 20.9375 
Q 15.4375 19.96875 14.203125 18.09375 
Q 12.984375 16.21875 12.984375 13.921875 
Q 12.984375 10.40625 15.640625 8.0625 
Q 18.3125 5.71875 23.4375 5.71875 
Q 28.515625 5.71875 32.46875 7.9375 
Q 36.421875 10.15625 38.28125 14.015625 
Q 39.703125 17 39.703125 22.796875 
z
" id="ArialMT-61"/>
     <path d="M 3.078125 15.484375 
L 11.765625 16.84375 
Q 12.5 11.625 15.84375 8.84375 
Q 19.1875 6.0625 25.203125 6.0625 
Q 31.25 6.0625 34.171875 8.515625 
Q 37.109375 10.984375 37.109375 14.3125 
Q 37.109375 17.28125 34.515625 19 
Q 32.71875 20.171875 25.53125 21.96875 
Q 15.875 24.421875 12.140625 26.203125 
Q 8.40625 27.984375 6.46875 31.125 
Q 4.546875 34.28125 4.546875 38.09375 
Q 4.546875 41.546875 6.125 44.5 
Q 7.71875 47.46875 10.453125 49.421875 
Q 12.5 50.921875 16.03125 51.96875 
Q 19.578125 53.03125 23.640625 53.03125 
Q 29.734375 53.03125 34.34375 51.265625 
Q 38.96875 49.515625 41.15625 46.5 
Q 43.359375 43.5 44.1875 38.484375 
L 35.59375 37.3125 
Q 35.015625 41.3125 32.203125 43.546875 
Q 29.390625 45.796875 24.265625 45.796875 
Q 18.21875 45.796875 15.625 43.796875 
Q 13.03125 41.796875 13.03125 39.109375 
Q 13.03125 37.40625 14.109375 36.03125 
Q 15.1875 34.625 17.484375 33.6875 
Q 18.796875 33.203125 25.25 31.453125 
Q 34.578125 28.953125 38.25 27.359375 
Q 41.9375 25.78125 44.03125 22.75 
Q 46.140625 19.734375 46.140625 15.234375 
Q 46.140625 10.84375 43.578125 6.953125 
Q 41.015625 3.078125 36.171875 0.953125 
Q 31.34375 -1.171875 25.25 -1.171875 
Q 15.140625 -1.171875 9.84375 3.03125 
Q 4.546875 7.234375 3.078125 15.484375 
" id="ArialMT-73"/>
    </defs>
    <g transform="translate(378.194133 200.60358)scale(0.16 -0.16)">
     <use xlink:href="#ArialMT-77"/>
     <use x="72.216797" xlink:href="#ArialMT-69"/>
     <use x="94.433594" xlink:href="#ArialMT-6b"/>
     <use x="144.433594" xlink:href="#ArialMT-69"/>
     <use x="166.650391" xlink:href="#ArialMT-6c"/>
     <use x="188.867188" xlink:href="#ArialMT-65"/>
     <use x="244.482422" xlink:href="#ArialMT-61"/>
     <use x="300.097656" xlink:href="#ArialMT-6b"/>
     <use x="350.097656" xlink:href="#ArialMT-73"/>
    </g>
   </g>
   <g id="text_31">
    <!-- арестова -->
    <defs>
     <path d="M 40.4375 6.390625 
Q 35.546875 2.25 31.03125 0.53125 
Q 26.515625 -1.171875 21.34375 -1.171875 
Q 12.796875 -1.171875 8.203125 3 
Q 3.609375 7.171875 3.609375 13.671875 
Q 3.609375 17.484375 5.34375 20.625 
Q 7.078125 23.78125 9.890625 25.6875 
Q 12.703125 27.59375 16.21875 28.5625 
Q 18.796875 29.25 24.03125 29.890625 
Q 34.671875 31.15625 39.703125 32.90625 
Q 39.75 34.71875 39.75 35.203125 
Q 39.75 40.578125 37.25 42.78125 
Q 33.890625 45.75 27.25 45.75 
Q 21.046875 45.75 18.09375 43.578125 
Q 15.140625 41.40625 13.71875 35.890625 
L 5.125 37.0625 
Q 6.296875 42.578125 8.984375 45.96875 
Q 11.671875 49.359375 16.75 51.1875 
Q 21.828125 53.03125 28.515625 53.03125 
Q 35.15625 53.03125 39.296875 51.46875 
Q 43.453125 49.90625 45.40625 47.53125 
Q 47.359375 45.171875 48.140625 41.546875 
Q 48.578125 39.3125 48.578125 33.453125 
L 48.578125 21.734375 
Q 48.578125 9.46875 49.140625 6.21875 
Q 49.703125 2.984375 51.375 0 
L 42.1875 0 
Q 40.828125 2.734375 40.4375 6.390625 
M 39.703125 26.03125 
Q 34.90625 24.078125 25.34375 22.703125 
Q 19.921875 21.921875 17.671875 20.9375 
Q 15.4375 19.96875 14.203125 18.09375 
Q 12.984375 16.21875 12.984375 13.921875 
Q 12.984375 10.40625 15.640625 8.0625 
Q 18.3125 5.71875 23.4375 5.71875 
Q 28.515625 5.71875 32.46875 7.9375 
Q 36.421875 10.15625 38.28125 14.015625 
Q 39.703125 17 39.703125 22.796875 
z
" id="ArialMT-430"/>
     <path d="M 6.59375 -19.875 
L 6.59375 51.859375 
L 14.59375 51.859375 
L 14.59375 45.125 
Q 17.4375 49.078125 21 51.046875 
Q 24.5625 53.03125 29.640625 53.03125 
Q 36.28125 53.03125 41.359375 49.609375 
Q 46.4375 46.1875 49.015625 39.953125 
Q 51.609375 33.734375 51.609375 26.3125 
Q 51.609375 18.359375 48.75 11.984375 
Q 45.90625 5.609375 40.453125 2.21875 
Q 35.015625 -1.171875 29 -1.171875 
Q 24.609375 -1.171875 21.109375 0.6875 
Q 17.625 2.546875 15.375 5.375 
L 15.375 -19.875 
z
M 14.546875 25.640625 
Q 14.546875 15.625 18.59375 10.84375 
Q 22.65625 6.0625 28.421875 6.0625 
Q 34.28125 6.0625 38.453125 11.015625 
Q 42.625 15.96875 42.625 26.375 
Q 42.625 36.28125 38.546875 41.203125 
Q 34.46875 46.140625 28.8125 46.140625 
Q 23.1875 46.140625 18.859375 40.890625 
Q 14.546875 35.640625 14.546875 25.640625 
" id="ArialMT-440"/>
     <path d="M 42.09375 16.703125 
L 51.171875 15.578125 
Q 49.03125 7.625 43.21875 3.21875 
Q 37.40625 -1.171875 28.375 -1.171875 
Q 17 -1.171875 10.328125 5.828125 
Q 3.65625 12.84375 3.65625 25.484375 
Q 3.65625 38.578125 10.390625 45.796875 
Q 17.140625 53.03125 27.875 53.03125 
Q 38.28125 53.03125 44.875 45.953125 
Q 51.46875 38.875 51.46875 26.03125 
Q 51.46875 25.25 51.421875 23.6875 
L 12.75 23.6875 
Q 13.234375 15.140625 17.578125 10.59375 
Q 21.921875 6.0625 28.421875 6.0625 
Q 33.25 6.0625 36.671875 8.59375 
Q 40.09375 11.140625 42.09375 16.703125 
M 13.234375 30.90625 
L 42.1875 30.90625 
Q 41.609375 37.453125 38.875 40.71875 
Q 34.671875 45.796875 27.984375 45.796875 
Q 21.921875 45.796875 17.796875 41.75 
Q 13.671875 37.703125 13.234375 30.90625 
" id="ArialMT-435"/>
     <path d="M 40.4375 19 
L 49.078125 17.875 
Q 47.65625 8.9375 41.8125 3.875 
Q 35.984375 -1.171875 27.484375 -1.171875 
Q 16.84375 -1.171875 10.375 5.78125 
Q 3.90625 12.75 3.90625 25.734375 
Q 3.90625 34.125 6.6875 40.421875 
Q 9.46875 46.734375 15.15625 49.875 
Q 20.84375 53.03125 27.546875 53.03125 
Q 35.984375 53.03125 41.359375 48.75 
Q 46.734375 44.484375 48.25 36.625 
L 39.703125 35.296875 
Q 38.484375 40.53125 35.375 43.15625 
Q 32.28125 45.796875 27.875 45.796875 
Q 21.234375 45.796875 17.078125 41.03125 
Q 12.9375 36.28125 12.9375 25.984375 
Q 12.9375 15.53125 16.9375 10.796875 
Q 20.953125 6.0625 27.390625 6.0625 
Q 32.5625 6.0625 36.03125 9.234375 
Q 39.5 12.40625 40.4375 19 
" id="ArialMT-441"/>
     <path d="M 1.859375 51.859375 
L 44 51.859375 
L 44 44.578125 
L 27.296875 44.578125 
L 27.296875 0 
L 18.5625 0 
L 18.5625 44.578125 
L 1.859375 44.578125 
z
" id="ArialMT-442"/>
     <path d="M 3.328125 25.921875 
Q 3.328125 40.328125 11.328125 47.265625 
Q 18.015625 53.03125 27.640625 53.03125 
Q 38.328125 53.03125 45.109375 46.015625 
Q 51.90625 39.015625 51.90625 26.65625 
Q 51.90625 16.65625 48.90625 10.90625 
Q 45.90625 5.171875 40.15625 2 
Q 34.421875 -1.171875 27.640625 -1.171875 
Q 16.75 -1.171875 10.03125 5.8125 
Q 3.328125 12.796875 3.328125 25.921875 
M 12.359375 25.921875 
Q 12.359375 15.96875 16.703125 11.015625 
Q 21.046875 6.0625 27.640625 6.0625 
Q 34.1875 6.0625 38.53125 11.03125 
Q 42.875 16.015625 42.875 26.21875 
Q 42.875 35.84375 38.5 40.796875 
Q 34.125 45.75 27.640625 45.75 
Q 21.046875 45.75 16.703125 40.8125 
Q 12.359375 35.890625 12.359375 25.921875 
" id="ArialMT-43e"/>
     <path d="M 6.640625 51.859375 
L 26.90625 51.859375 
Q 34.375 51.859375 38.015625 50.609375 
Q 41.65625 49.359375 44.265625 46.03125 
Q 46.875 42.71875 46.875 38.09375 
Q 46.875 34.375 45.328125 31.609375 
Q 43.796875 28.859375 40.71875 27 
Q 44.390625 25.78125 46.796875 22.4375 
Q 49.21875 19.09375 49.21875 14.5 
Q 48.734375 7.125 43.9375 3.5625 
Q 39.15625 0 30.03125 0 
L 6.640625 0 
z
M 15.4375 30.03125 
L 24.8125 30.03125 
Q 30.421875 30.03125 32.515625 30.609375 
Q 34.625 31.203125 36.28125 32.984375 
Q 37.9375 34.765625 37.9375 37.25 
Q 37.9375 41.359375 35.03125 42.96875 
Q 32.125 44.578125 25.09375 44.578125 
L 15.4375 44.578125 
z
M 15.4375 7.234375 
L 27 7.234375 
Q 34.46875 7.234375 37.25 8.953125 
Q 40.046875 10.6875 40.1875 14.9375 
Q 40.1875 17.4375 38.578125 19.5625 
Q 36.96875 21.6875 34.375 22.234375 
Q 31.78125 22.796875 26.078125 22.796875 
L 15.4375 22.796875 
z
" id="ArialMT-432"/>
    </defs>
    <g transform="translate(338.993679 271.654355)scale(0.16 -0.16)">
     <use xlink:href="#ArialMT-430"/>
     <use x="55.615234" xlink:href="#ArialMT-440"/>
     <use x="111.230469" xlink:href="#ArialMT-435"/>
     <use x="166.845703" xlink:href="#ArialMT-441"/>
     <use x="216.845703" xlink:href="#ArialMT-442"/>
     <use x="262.630859" xlink:href="#ArialMT-43e"/>
     <use x="318.246094" xlink:href="#ArialMT-432"/>
     <use x="371.355469" xlink:href="#ArialMT-430"/>
    </g>
   </g>
   <g id="text_32">
    <!-- бойкотир -->
    <defs>
     <path d="M 44.578125 73.296875 
L 52.34375 73.1875 
Q 51.8125 67.96875 50.03125 65.921875 
Q 48.25 63.875 45.4375 63.28125 
Q 42.625 62.703125 34.421875 62.703125 
Q 23.53125 62.703125 19.578125 60.59375 
Q 15.625 58.5 13.890625 53.875 
Q 12.15625 49.265625 11.96875 42 
Q 15.28125 46.921875 19.71875 49.390625 
Q 24.171875 51.859375 29.734375 51.859375 
Q 39.9375 51.859375 46.625 44.84375 
Q 53.328125 37.84375 53.328125 25.875 
Q 53.328125 16.796875 49.953125 10.984375 
Q 46.578125 5.171875 41.96875 2 
Q 37.359375 -1.171875 29.390625 -1.171875 
Q 20.171875 -1.171875 15.03125 3.046875 
Q 9.90625 7.28125 7.171875 13.859375 
Q 4.4375 20.453125 4.4375 36.8125 
Q 4.4375 57.375 11.390625 64.5 
Q 18.359375 71.625 32.8125 71.625 
Q 41.796875 71.625 43.015625 71.921875 
Q 44.234375 72.21875 44.578125 73.296875 
M 44.140625 26.125 
Q 44.140625 34.234375 40.296875 39.40625 
Q 36.46875 44.578125 29.5 44.578125 
Q 22.21875 44.578125 18.265625 39.109375 
Q 14.3125 33.640625 14.3125 24.515625 
Q 14.3125 15.484375 18.671875 10.6875 
Q 23.046875 5.90625 29.4375 5.90625 
Q 35.984375 5.90625 40.0625 11.453125 
Q 44.140625 17 44.140625 26.125 
" id="ArialMT-431"/>
     <path d="M 6.59375 51.859375 
L 15.375 51.859375 
L 15.375 12.3125 
L 39.75 51.859375 
L 49.21875 51.859375 
L 49.21875 0 
L 40.4375 0 
L 40.4375 39.3125 
L 16.0625 0 
L 6.59375 0 
z
M 37.09375 71.484375 
L 43.109375 71.484375 
Q 42.375 65.375 38.640625 62.109375 
Q 34.90625 58.84375 28.703125 58.84375 
Q 22.453125 58.84375 18.71875 62.078125 
Q 14.984375 65.328125 14.25 71.484375 
L 20.25 71.484375 
Q 20.9375 68.171875 22.953125 66.53125 
Q 24.984375 64.890625 28.40625 64.890625 
Q 32.359375 64.890625 34.390625 66.46875 
Q 36.421875 68.0625 37.09375 71.484375 
" id="ArialMT-439"/>
     <path d="M 6.546875 51.859375 
L 15.328125 51.859375 
L 15.328125 29.4375 
Q 19.53125 29.4375 21.21875 31.046875 
Q 22.90625 32.671875 26.171875 40.4375 
Q 28.765625 46.578125 30.375 48.53125 
Q 31.984375 50.484375 34.078125 51.171875 
Q 36.1875 51.859375 40.828125 51.859375 
L 42.578125 51.859375 
L 42.578125 44.578125 
L 40.140625 44.625 
Q 36.671875 44.625 35.6875 43.609375 
Q 34.671875 42.53125 32.5625 37.203125 
Q 30.5625 32.125 28.90625 30.171875 
Q 27.25 28.21875 23.78125 26.609375 
Q 29.4375 25.09375 34.90625 16.0625 
L 44.53125 0 
L 34.859375 0 
L 25.484375 16.0625 
Q 22.609375 20.90625 20.453125 22.4375 
Q 18.3125 23.96875 15.328125 23.96875 
L 15.328125 0 
L 6.546875 0 
z
" id="ArialMT-43a"/>
     <path d="M 6.59375 51.859375 
L 15.375 51.859375 
L 15.375 12.3125 
L 39.75 51.859375 
L 49.21875 51.859375 
L 49.21875 0 
L 40.4375 0 
L 40.4375 39.3125 
L 16.0625 0 
L 6.59375 0 
z
" id="ArialMT-438"/>
    </defs>
    <g transform="translate(172.050979 268.025469)scale(0.16 -0.16)">
     <use xlink:href="#ArialMT-431"/>
     <use x="57.275391" xlink:href="#ArialMT-43e"/>
     <use x="112.890625" xlink:href="#ArialMT-439"/>
     <use x="168.75" xlink:href="#ArialMT-43a"/>
     <use x="212.515625" xlink:href="#ArialMT-43e"/>
     <use x="268.099609" xlink:href="#ArialMT-442"/>
     <use x="313.900391" xlink:href="#ArialMT-438"/>
     <use x="369.759766" xlink:href="#ArialMT-440"/>
    </g>
   </g>
   <g id="text_33">
    <!-- великобритан -->
    <defs>
     <path d="M 10.890625 51.859375 
L 51.703125 51.859375 
L 51.703125 0 
L 42.96875 0 
L 42.96875 44.578125 
L 19.671875 44.578125 
L 19.671875 18.75 
Q 19.671875 9.71875 19.078125 6.828125 
Q 18.5 3.953125 15.859375 1.796875 
Q 13.234375 -0.34375 8.25 -0.34375 
Q 5.171875 -0.34375 1.171875 0.046875 
L 1.171875 7.375 
L 5.03125 7.375 
Q 7.765625 7.375 8.9375 7.9375 
Q 10.109375 8.5 10.5 9.71875 
Q 10.890625 10.9375 10.890625 17.671875 
z
" id="ArialMT-43b"/>
     <path d="M 6.640625 51.859375 
L 15.4375 51.859375 
L 15.4375 30.28125 
L 39.796875 30.28125 
L 39.796875 51.859375 
L 48.578125 51.859375 
L 48.578125 0 
L 39.796875 0 
L 39.796875 23 
L 15.4375 23 
L 15.4375 0 
L 6.640625 0 
z
" id="ArialMT-43d"/>
    </defs>
    <g transform="translate(340.842749 215.077964)scale(0.16 -0.16)">
     <use xlink:href="#ArialMT-432"/>
     <use x="53.109375" xlink:href="#ArialMT-435"/>
     <use x="108.677734" xlink:href="#ArialMT-43b"/>
     <use x="167.027344" xlink:href="#ArialMT-438"/>
     <use x="222.886719" xlink:href="#ArialMT-43a"/>
     <use x="266.652344" xlink:href="#ArialMT-43e"/>
     <use x="322.267578" xlink:href="#ArialMT-431"/>
     <use x="379.542969" xlink:href="#ArialMT-440"/>
     <use x="435.158203" xlink:href="#ArialMT-438"/>
     <use x="491.017578" xlink:href="#ArialMT-442"/>
     <use x="536.802734" xlink:href="#ArialMT-430"/>
     <use x="592.417969" xlink:href="#ArialMT-43d"/>
    </g>
   </g>
   <g id="text_34">
    <!-- вручен -->
    <defs>
     <path d="M 6.203125 -19.96875 
L 5.21875 -11.71875 
Q 8.109375 -12.5 10.25 -12.5 
Q 13.1875 -12.5 14.9375 -11.515625 
Q 16.703125 -10.546875 17.828125 -8.796875 
Q 18.65625 -7.46875 20.515625 -2.25 
Q 20.75 -1.515625 21.296875 -0.09375 
L 1.609375 51.859375 
L 11.078125 51.859375 
L 21.875 21.828125 
Q 23.96875 16.109375 25.640625 9.8125 
Q 27.15625 15.875 29.25 21.625 
L 40.328125 51.859375 
L 49.125 51.859375 
L 29.390625 -0.875 
Q 26.21875 -9.421875 24.46875 -12.640625 
Q 22.125 -17 19.09375 -19.015625 
Q 16.0625 -21.046875 11.859375 -21.046875 
Q 9.328125 -21.046875 6.203125 -19.96875 
" id="ArialMT-443"/>
     <path d="M 3.375 51.859375 
L 12.15625 51.859375 
L 12.15625 42.046875 
Q 12.15625 35.6875 12.90625 32.828125 
Q 13.671875 29.984375 16.546875 27.859375 
Q 19.4375 25.734375 23.78125 25.734375 
Q 28.765625 25.734375 36.671875 28.375 
L 36.671875 51.859375 
L 45.453125 51.859375 
L 45.453125 0 
L 36.671875 0 
L 36.671875 20.90625 
Q 28.5625 18.359375 21.53125 18.359375 
Q 15.625 18.359375 11.109375 21.359375 
Q 6.59375 24.359375 4.984375 28.703125 
Q 3.375 33.0625 3.375 38.28125 
z
" id="ArialMT-447"/>
    </defs>
    <g transform="translate(136.952052 213.001141)scale(0.16 -0.16)">
     <use xlink:href="#ArialMT-432"/>
     <use x="53.125" xlink:href="#ArialMT-440"/>
     <use x="108.724609" xlink:href="#ArialMT-443"/>
     <use x="158.724609" xlink:href="#ArialMT-447"/>
     <use x="210.824219" xlink:href="#ArialMT-435"/>
     <use x="266.439453" xlink:href="#ArialMT-43d"/>
    </g>
   </g>
   <g id="text_35">
    <!-- нобелевск -->
    <g transform="translate(137.546056 232.016359)scale(0.16 -0.16)">
     <use xlink:href="#ArialMT-43d"/>
     <use x="55.224609" xlink:href="#ArialMT-43e"/>
     <use x="110.839844" xlink:href="#ArialMT-431"/>
     <use x="168.099609" xlink:href="#ArialMT-435"/>
     <use x="223.667969" xlink:href="#ArialMT-43b"/>
     <use x="282.017578" xlink:href="#ArialMT-435"/>
     <use x="337.632812" xlink:href="#ArialMT-432"/>
     <use x="390.742188" xlink:href="#ArialMT-441"/>
     <use x="440.742188" xlink:href="#ArialMT-43a"/>
    </g>
   </g>
   <g id="text_36">
    <!-- основател -->
    <g transform="translate(376.823565 231.614885)scale(0.16 -0.16)">
     <use xlink:href="#ArialMT-43e"/>
     <use x="55.615234" xlink:href="#ArialMT-441"/>
     <use x="105.615234" xlink:href="#ArialMT-43d"/>
     <use x="160.839844" xlink:href="#ArialMT-43e"/>
     <use x="216.455078" xlink:href="#ArialMT-432"/>
     <use x="269.564453" xlink:href="#ArialMT-430"/>
     <use x="325.148438" xlink:href="#ArialMT-442"/>
     <use x="370.933594" xlink:href="#ArialMT-435"/>
     <use x="426.501953" xlink:href="#ArialMT-43b"/>
    </g>
   </g>
   <g id="text_37">
    <!-- полиц -->
    <defs>
     <path d="M 6.640625 51.859375 
L 47.5625 51.859375 
L 47.5625 0 
L 38.765625 0 
L 38.765625 44.578125 
L 15.4375 44.578125 
L 15.4375 0 
L 6.640625 0 
z
" id="ArialMT-43f"/>
     <path d="M 6.734375 51.859375 
L 15.53125 51.859375 
L 15.53125 7.234375 
L 39.84375 7.234375 
L 39.84375 51.859375 
L 48.640625 51.859375 
L 48.640625 7.234375 
L 54.296875 7.234375 
L 54.296875 -14.703125 
L 47.078125 -14.703125 
L 47.078125 0 
L 6.734375 0 
z
" id="ArialMT-446"/>
    </defs>
    <g transform="translate(334.505279 250.690721)scale(0.16 -0.16)">
     <use xlink:href="#ArialMT-43f"/>
     <use x="54.150391" xlink:href="#ArialMT-43e"/>
     <use x="109.734375" xlink:href="#ArialMT-43b"/>
     <use x="168.083984" xlink:href="#ArialMT-438"/>
     <use x="223.943359" xlink:href="#ArialMT-446"/>
    </g>
   </g>
   <g id="text_38">
    <!-- прем -->
    <defs>
     <path d="M 6.84375 51.859375 
L 20.515625 51.859375 
L 34.125 10.359375 
L 49.265625 51.859375 
L 61.921875 51.859375 
L 61.921875 0 
L 53.125 0 
L 53.125 41.75 
L 37.796875 0 
L 29.9375 0 
L 15.4375 43.75 
L 15.4375 0 
L 6.84375 0 
z
" id="ArialMT-43c"/>
    </defs>
    <g transform="translate(137.189375 220.598293)scale(0.16 -0.16)">
     <use xlink:href="#ArialMT-43f"/>
     <use x="54.150391" xlink:href="#ArialMT-440"/>
     <use x="109.765625" xlink:href="#ArialMT-435"/>
     <use x="165.380859" xlink:href="#ArialMT-43c"/>
    </g>
   </g>
   <g id="text_39">
    <!-- прот -->
    <g transform="translate(277.595247 127.887539)scale(0.16 -0.16)">
     <use xlink:href="#ArialMT-43f"/>
     <use x="54.150391" xlink:href="#ArialMT-440"/>
     <use x="109.765625" xlink:href="#ArialMT-43e"/>
     <use x="165.349609" xlink:href="#ArialMT-442"/>
    </g>
   </g>
   <g id="text_40">
    <!-- росс -->
    <g transform="translate(275.781999 204.960878)scale(0.16 -0.16)">
     <use xlink:href="#ArialMT-440"/>
     <use x="55.615234" xlink:href="#ArialMT-43e"/>
     <use x="111.230469" xlink:href="#ArialMT-441"/>
     <use x="161.230469" xlink:href="#ArialMT-441"/>
    </g>
   </g>
   <g id="text_41">
    <!-- стран -->
    <g transform="translate(216.437855 168.16244)scale(0.16 -0.16)">
     <use xlink:href="#ArialMT-441"/>
     <use x="50" xlink:href="#ArialMT-442"/>
     <use x="95.800781" xlink:href="#ArialMT-440"/>
     <use x="151.416016" xlink:href="#ArialMT-430"/>
     <use x="207.03125" xlink:href="#ArialMT-43d"/>
    </g>
   </g>
   <g id="text_42">
    <!-- суд -->
    <defs>
     <path d="M 13.53125 51.859375 
L 49.65625 51.859375 
L 49.65625 7.234375 
L 55.28125 7.234375 
L 55.28125 -14.703125 
L 48.046875 -14.703125 
L 48.046875 0 
L 7.234375 0 
L 7.234375 -14.703125 
L 0 -14.703125 
L 0 7.234375 
L 4.640625 7.234375 
Q 13.921875 19.828125 13.53125 51.859375 
M 20.84375 44.578125 
Q 19.875 19.34375 13.03125 7.234375 
L 40.921875 7.234375 
L 40.921875 44.578125 
z
" id="ArialMT-434"/>
    </defs>
    <g transform="translate(302.553129 210.557963)scale(0.16 -0.16)">
     <use xlink:href="#ArialMT-441"/>
     <use x="50" xlink:href="#ArialMT-443"/>
     <use x="99.953125" xlink:href="#ArialMT-434"/>
    </g>
   </g>
   <g id="text_43">
    <!-- сша -->
    <defs>
     <path d="M 6.890625 51.859375 
L 15.671875 51.859375 
L 15.671875 7.28125 
L 35.6875 7.28125 
L 35.6875 51.859375 
L 44.484375 51.859375 
L 44.484375 7.28125 
L 64.546875 7.28125 
L 64.546875 51.859375 
L 73.296875 51.859375 
L 73.296875 0 
L 6.890625 0 
z
" id="ArialMT-448"/>
    </defs>
    <g transform="translate(276.989988 176.285262)scale(0.16 -0.16)">
     <use xlink:href="#ArialMT-441"/>
     <use x="50" xlink:href="#ArialMT-448"/>
     <use x="130.224609" xlink:href="#ArialMT-430"/>
    </g>
   </g>
   <g id="text_44">
    <!-- церемон -->
    <g transform="translate(171.957626 263.492321)scale(0.16 -0.16)">
     <use xlink:href="#ArialMT-446"/>
     <use x="57.259766" xlink:href="#ArialMT-435"/>
     <use x="112.875" xlink:href="#ArialMT-440"/>
     <use x="168.490234" xlink:href="#ArialMT-435"/>
     <use x="224.105469" xlink:href="#ArialMT-43c"/>
     <use x="292.855469" xlink:href="#ArialMT-43e"/>
     <use x="348.470703" xlink:href="#ArialMT-43d"/>
    </g>
   </g>
   <g id="Path3DCollection_5">
    <g clip-path="url(#peefd69b85a)">
     <use style="fill:#0000ff;stroke:#0000ff;" x="353.960869" xlink:href="#m4544a84035" y="234.927051"/>
    </g>
   </g>
   <g id="Path3DCollection_6">
    <g clip-path="url(#peefd69b85a)">
     <use style="fill:#0000ff;stroke:#0000ff;" x="100.329465" xlink:href="#m4544a84035" y="260.602236"/>
    </g>
   </g>
   <g id="Path3DCollection_7">
    <g clip-path="url(#peefd69b85a)">
     <use style="fill:#ff0000;stroke:#ff0000;" x="339.711038" xlink:href="#m6e460b751a" y="249.705181"/>
    </g>
   </g>
   <g id="Path3DCollection_8">
    <g clip-path="url(#peefd69b85a)">
     <use style="fill:#ff0000;stroke:#ff0000;" x="339.711038" xlink:href="#m6e460b751a" y="249.705181"/>
    </g>
   </g>
   <g id="Path3DCollection_9">
    <g clip-path="url(#peefd69b85a)">
     <use style="fill:#0000ff;stroke:#0000ff;" x="82.202744" xlink:href="#m4544a84035" y="233.27604"/>
    </g>
   </g>
   <g id="Path3DCollection_10">
    <g clip-path="url(#peefd69b85a)">
     <use style="fill:#ff0000;stroke:#ff0000;" x="334.467426" xlink:href="#m6e460b751a" y="251.910144"/>
    </g>
   </g>
   <g id="Path3DCollection_11">
    <g clip-path="url(#peefd69b85a)">
     <use style="fill:#0000ff;stroke:#0000ff;" x="345.431991" xlink:href="#m4544a84035" y="217.132382"/>
    </g>
   </g>
   <g id="Path3DCollection_12">
    <g clip-path="url(#peefd69b85a)">
     <use style="fill:#ff0000;stroke:#ff0000;" x="138.503925" xlink:href="#m6e460b751a" y="262.679553"/>
    </g>
   </g>
   <g id="Path3DCollection_13">
    <g clip-path="url(#peefd69b85a)">
     <use style="fill:#ff0000;stroke:#ff0000;" x="138.503925" xlink:href="#m6e460b751a" y="262.679553"/>
    </g>
   </g>
   <g id="Path3DCollection_14">
    <g clip-path="url(#peefd69b85a)">
     <use style="fill:#ff0000;stroke:#ff0000;" x="138.503925" xlink:href="#m6e460b751a" y="262.679553"/>
    </g>
   </g>
   <g id="Path3DCollection_15">
    <g clip-path="url(#peefd69b85a)">
     <use style="fill:#0000ff;stroke:#0000ff;" x="159.598033" xlink:href="#m4544a84035" y="270.394082"/>
    </g>
   </g>
   <g id="Path3DCollection_16">
    <g clip-path="url(#peefd69b85a)">
     <use style="fill:#ff0000;stroke:#ff0000;" x="171.986307" xlink:href="#m6e460b751a" y="264.885018"/>
    </g>
   </g>
   <g id="Path3DCollection_17">
    <g clip-path="url(#peefd69b85a)">
     <use style="fill:#ff0000;stroke:#ff0000;" x="171.986307" xlink:href="#m6e460b751a" y="264.885018"/>
    </g>
   </g>
   <g id="Path3DCollection_18">
    <g clip-path="url(#peefd69b85a)">
     <use style="fill:#ff0000;stroke:#ff0000;" x="302.445897" xlink:href="#m6e460b751a" y="215.751922"/>
    </g>
   </g>
   <g id="Path3DCollection_19">
    <g clip-path="url(#peefd69b85a)">
     <use style="fill:#ff0000;stroke:#ff0000;" x="216.714331" xlink:href="#m6e460b751a" y="212.47194"/>
    </g>
   </g>
   <g id="Path3DCollection_20">
    <g clip-path="url(#peefd69b85a)">
     <use style="fill:#ff0000;stroke:#ff0000;" x="275.49976" xlink:href="#m6e460b751a" y="228.018831"/>
    </g>
   </g>
   <g id="Path3DCollection_21">
    <g clip-path="url(#peefd69b85a)">
     <use style="fill:#0000ff;stroke:#0000ff;" x="285.785102" xlink:href="#m4544a84035" y="170.201486"/>
    </g>
   </g>
   <g id="Path3DCollection_22">
    <g clip-path="url(#peefd69b85a)">
     <use style="fill:#ff0000;stroke:#ff0000;" x="276.944825" xlink:href="#m6e460b751a" y="179.896596"/>
    </g>
   </g>
   <g id="Path3DCollection_23">
    <g clip-path="url(#peefd69b85a)">
     <use style="fill:#ff0000;stroke:#ff0000;" x="276.944825" xlink:href="#m6e460b751a" y="179.896596"/>
    </g>
   </g>
   <g id="Path3DCollection_24">
    <g clip-path="url(#peefd69b85a)">
     <use style="fill:#0000ff;stroke:#0000ff;" x="258.968235" xlink:href="#m4544a84035" y="143.695953"/>
    </g>
   </g>
  </g>
 </g>
 <defs>
  <clipPath id="peefd69b85a">
   <rect height="345.6" width="460.8" x="0" y="0"/>
  </clipPath>
 </defs>
</svg>
